<svg width="373" height="100" viewBox="0 0 373 100" fill="none" xmlns="http://www.w3.org/2000/svg">
<rect x="0.5" y="0.5" width="372" height="99" rx="4.5" fill="white"/>
<rect x="0.5" y="0.5" width="372" height="99" rx="4.5" stroke="#9747FF" stroke-dasharray="10 5"/>
<path d="M101.824 58.04L96 42.168H100.288L104.32 54.168L108.352 42.168H112.64L106.784 58.04H101.824Z" fill="#F64920"/>
<path d="M117.632 39.704C116.885 39.704 116.266 39.48 115.776 39.032C115.306 38.584 115.072 38.0187 115.072 37.336C115.072 36.6533 115.306 36.0987 115.776 35.672C116.266 35.224 116.885 35 117.632 35C118.378 35 118.986 35.224 119.456 35.672C119.946 36.0987 120.192 36.6533 120.192 37.336C120.192 38.0187 119.946 38.584 119.456 39.032C118.986 39.48 118.378 39.704 117.632 39.704ZM115.583 58.04V42.168H119.68V58.04H115.583Z" fill="#F64920"/>
<path d="M131.451 58.424C129.957 58.424 128.624 58.0613 127.451 57.336C126.277 56.6107 125.349 55.6187 124.667 54.36C123.984 53.1013 123.643 51.672 123.643 50.072C123.643 48.472 123.984 47.0533 124.667 45.816C125.349 44.5573 126.277 43.576 127.451 42.872C128.624 42.1467 129.957 41.784 131.451 41.784C132.645 41.784 133.691 42.008 134.587 42.456C135.483 42.904 136.208 43.5333 136.763 44.344V35H140.859V58.04H137.211L136.763 55.768C136.251 56.472 135.568 57.0907 134.715 57.624C133.883 58.1573 132.795 58.424 131.451 58.424ZM132.315 54.84C133.637 54.84 134.715 54.4027 135.547 53.528C136.4 52.632 136.827 51.4907 136.827 50.104C136.827 48.7173 136.4 47.5867 135.547 46.712C134.715 45.816 133.637 45.368 132.315 45.368C131.013 45.368 129.936 45.8053 129.083 46.68C128.229 47.5547 127.803 48.6853 127.803 50.072C127.803 51.4587 128.229 52.6 129.083 53.496C129.936 54.392 131.013 54.84 132.315 54.84Z" fill="#F64920"/>
<path d="M152.942 58.424C151.342 58.424 149.923 58.0827 148.686 57.4C147.448 56.7173 146.478 55.7573 145.774 54.52C145.07 53.2827 144.718 51.8533 144.718 50.232C144.718 48.5893 145.059 47.128 145.742 45.848C146.446 44.568 147.406 43.576 148.622 42.872C149.859 42.1467 151.31 41.784 152.974 41.784C154.531 41.784 155.907 42.1253 157.102 42.808C158.296 43.4907 159.224 44.4293 159.886 45.624C160.568 46.7973 160.91 48.1093 160.91 49.56C160.91 49.7947 160.899 50.04 160.878 50.296C160.878 50.552 160.867 50.8187 160.846 51.096H148.782C148.867 52.3333 149.294 53.304 150.062 54.008C150.851 54.712 151.8 55.064 152.91 55.064C153.742 55.064 154.435 54.8827 154.99 54.52C155.566 54.136 155.992 53.6453 156.27 53.048H160.43C160.131 54.0507 159.63 54.968 158.926 55.8C158.243 56.6107 157.39 57.2507 156.366 57.72C155.363 58.1893 154.222 58.424 152.942 58.424ZM152.974 45.112C151.971 45.112 151.086 45.4 150.318 45.976C149.55 46.5307 149.059 47.384 148.846 48.536H156.75C156.686 47.4907 156.302 46.6587 155.598 46.04C154.894 45.4213 154.019 45.112 152.974 45.112Z" fill="#F64920"/>
<path d="M172.171 58.424C170.635 58.424 169.248 58.072 168.011 57.368C166.795 56.664 165.824 55.6933 165.099 54.456C164.395 53.1973 164.043 51.7467 164.043 50.104C164.043 48.4613 164.405 47.0213 165.131 45.784C165.856 44.5253 166.827 43.544 168.043 42.84C169.28 42.136 170.667 41.784 172.203 41.784C173.717 41.784 175.083 42.136 176.299 42.84C177.536 43.544 178.507 44.5253 179.211 45.784C179.936 47.0213 180.299 48.4613 180.299 50.104C180.299 51.7467 179.936 53.1973 179.211 54.456C178.507 55.6933 177.536 56.664 176.299 57.368C175.061 58.072 173.685 58.424 172.171 58.424ZM172.171 54.872C173.237 54.872 174.165 54.4773 174.955 53.688C175.744 52.8773 176.139 51.6827 176.139 50.104C176.139 48.5253 175.744 47.3413 174.955 46.552C174.165 45.7413 173.248 45.336 172.203 45.336C171.115 45.336 170.176 45.7413 169.387 46.552C168.619 47.3413 168.235 48.5253 168.235 50.104C168.235 51.6827 168.619 52.8773 169.387 53.688C170.176 54.4773 171.104 54.872 172.171 54.872Z" fill="#F64920"/>
<path d="M193.569 58.424C192.374 58.424 191.329 58.2 190.433 57.752C189.537 57.304 188.812 56.6747 188.257 55.864L187.809 58.04H184.161V35H188.257V44.44C188.769 43.736 189.441 43.1173 190.273 42.584C191.126 42.0507 192.225 41.784 193.569 41.784C195.062 41.784 196.396 42.1467 197.569 42.872C198.742 43.5973 199.67 44.5893 200.353 45.848C201.036 47.1067 201.377 48.536 201.377 50.136C201.377 51.736 201.036 53.1653 200.353 54.424C199.67 55.6613 198.742 56.6427 197.569 57.368C196.396 58.072 195.062 58.424 193.569 58.424ZM192.705 54.84C194.006 54.84 195.084 54.4027 195.937 53.528C196.79 52.6533 197.217 51.5227 197.217 50.136C197.217 48.7493 196.79 47.608 195.937 46.712C195.084 45.816 194.006 45.368 192.705 45.368C191.382 45.368 190.294 45.816 189.441 46.712C188.609 47.5867 188.193 48.7173 188.193 50.104C188.193 51.4907 188.609 52.632 189.441 53.528C190.294 54.4027 191.382 54.84 192.705 54.84Z" fill="#F64920"/>
<path d="M212.948 58.424C211.348 58.424 209.929 58.0827 208.692 57.4C207.455 56.7173 206.484 55.7573 205.78 54.52C205.076 53.2827 204.724 51.8533 204.724 50.232C204.724 48.5893 205.065 47.128 205.748 45.848C206.452 44.568 207.412 43.576 208.628 42.872C209.865 42.1467 211.316 41.784 212.98 41.784C214.537 41.784 215.913 42.1253 217.108 42.808C218.303 43.4907 219.231 44.4293 219.892 45.624C220.575 46.7973 220.916 48.1093 220.916 49.56C220.916 49.7947 220.905 50.04 220.884 50.296C220.884 50.552 220.873 50.8187 220.852 51.096H208.788C208.873 52.3333 209.3 53.304 210.068 54.008C210.857 54.712 211.807 55.064 212.916 55.064C213.748 55.064 214.441 54.8827 214.996 54.52C215.572 54.136 215.999 53.6453 216.276 53.048H220.436C220.137 54.0507 219.636 54.968 218.932 55.8C218.249 56.6107 217.396 57.2507 216.372 57.72C215.369 58.1893 214.228 58.424 212.948 58.424ZM212.98 45.112C211.977 45.112 211.092 45.4 210.324 45.976C209.556 46.5307 209.065 47.384 208.852 48.536H216.756C216.692 47.4907 216.308 46.6587 215.604 46.04C214.9 45.4213 214.025 45.112 212.98 45.112Z" fill="#F64920"/>
<path d="M224.561 58.04V35H228.657V58.04H224.561Z" fill="#F64920"/>
<path d="M238.514 58.424C237.149 58.424 236.029 58.2107 235.154 57.784C234.28 57.336 233.629 56.7493 233.202 56.024C232.776 55.2987 232.562 54.4987 232.562 53.624C232.562 52.152 233.138 50.9573 234.29 50.04C235.442 49.1227 237.17 48.664 239.474 48.664H243.506V48.28C243.506 47.192 243.197 46.392 242.578 45.88C241.96 45.368 241.192 45.112 240.274 45.112C239.442 45.112 238.717 45.3147 238.098 45.72C237.48 46.104 237.096 46.68 236.946 47.448H232.946C233.053 46.296 233.437 45.2933 234.098 44.44C234.781 43.5867 235.656 42.936 236.722 42.488C237.789 42.0187 238.984 41.784 240.306 41.784C242.568 41.784 244.349 42.3493 245.65 43.48C246.952 44.6107 247.602 46.2107 247.602 48.28V58.04H244.114L243.73 55.48C243.261 56.3333 242.6 57.0373 241.746 57.592C240.914 58.1467 239.837 58.424 238.514 58.424ZM239.442 55.224C240.616 55.224 241.522 54.84 242.162 54.072C242.824 53.304 243.24 52.3547 243.41 51.224H239.922C238.834 51.224 238.056 51.4267 237.586 51.832C237.117 52.216 236.882 52.696 236.882 53.272C236.882 53.8907 237.117 54.3707 237.586 54.712C238.056 55.0533 238.674 55.224 239.442 55.224Z" fill="#F64920"/>
<path d="M253.983 39.704C253.236 39.704 252.618 39.48 252.127 39.032C251.658 38.584 251.423 38.0187 251.423 37.336C251.423 36.6533 251.658 36.0987 252.127 35.672C252.618 35.224 253.236 35 253.983 35C254.73 35 255.338 35.224 255.807 35.672C256.298 36.0987 256.543 36.6533 256.543 37.336C256.543 38.0187 256.298 38.584 255.807 39.032C255.338 39.48 254.73 39.704 253.983 39.704ZM248.703 65.08V61.592H249.951C250.655 61.592 251.156 61.4533 251.455 61.176C251.754 60.8987 251.903 60.4293 251.903 59.768V42.168H255.999V59.768C255.999 61.688 255.508 63.0533 254.527 63.864C253.567 64.6747 252.255 65.08 250.591 65.08H248.703Z" fill="#F64920"/>
<path d="M265.945 58.424C264.58 58.424 263.46 58.2107 262.585 57.784C261.711 57.336 261.06 56.7493 260.633 56.024C260.207 55.2987 259.993 54.4987 259.993 53.624C259.993 52.152 260.57 50.9573 261.721 50.04C262.873 49.1227 264.602 48.664 266.906 48.664H270.938V48.28C270.938 47.192 270.628 46.392 270.01 45.88C269.391 45.368 268.623 45.112 267.706 45.112C266.874 45.112 266.148 45.3147 265.529 45.72C264.911 46.104 264.527 46.68 264.378 47.448H260.378C260.484 46.296 260.868 45.2933 261.529 44.44C262.212 43.5867 263.087 42.936 264.154 42.488C265.22 42.0187 266.415 41.784 267.738 41.784C269.999 41.784 271.78 42.3493 273.081 43.48C274.383 44.6107 275.034 46.2107 275.034 48.28V58.04H271.546L271.161 55.48C270.692 56.3333 270.031 57.0373 269.178 57.592C268.346 58.1467 267.268 58.424 265.945 58.424ZM266.874 55.224C268.047 55.224 268.954 54.84 269.594 54.072C270.255 53.304 270.671 52.3547 270.842 51.224H267.354C266.266 51.224 265.487 51.4267 265.018 51.832C264.548 52.216 264.314 52.696 264.314 53.272C264.314 53.8907 264.548 54.3707 265.018 54.712C265.487 55.0533 266.105 55.224 266.874 55.224Z" fill="#F64920"/>
<path d="M279.142 58.04V42.168H282.79L283.174 45.144C283.75 44.12 284.529 43.3093 285.51 42.712C286.513 42.0933 287.686 41.784 289.03 41.784V46.104H287.878C286.982 46.104 286.182 46.2427 285.478 46.52C284.774 46.7973 284.22 47.2773 283.814 47.96C283.43 48.6427 283.238 49.592 283.238 50.808V58.04H279.142Z" fill="#F64920"/>
<path fill-rule="evenodd" clip-rule="evenodd" d="M115.776 39.032C116.266 39.48 116.885 39.704 117.632 39.704C118.378 39.704 118.986 39.48 119.456 39.032C119.946 38.584 120.192 38.0187 120.192 37.336C120.192 36.6533 119.946 36.0987 119.456 35.672C118.986 35.224 118.378 35 117.632 35C116.885 35 116.266 35.224 115.776 35.672C115.306 36.0987 115.072 36.6533 115.072 37.336C115.072 38.0187 115.306 38.584 115.776 39.032ZM115.583 42.168V58.04H119.68V42.168H115.583ZM96 42.168L101.824 58.04H106.784L112.64 42.168H108.352L104.32 54.168L100.288 42.168H96ZM131.451 58.424C129.957 58.424 128.624 58.0613 127.451 57.336C126.277 56.6107 125.349 55.6187 124.667 54.36C123.984 53.1013 123.643 51.672 123.643 50.072C123.643 48.472 123.984 47.0533 124.667 45.816C125.349 44.5573 126.277 43.576 127.451 42.872C128.624 42.1467 129.957 41.784 131.451 41.784C132.645 41.784 133.691 42.008 134.587 42.456C135.483 42.904 136.208 43.5333 136.763 44.344V35H140.859V58.04H137.211L136.763 55.768C136.251 56.472 135.568 57.0907 134.715 57.624C133.883 58.1573 132.795 58.424 131.451 58.424ZM132.315 54.84C133.637 54.84 134.715 54.4027 135.547 53.528C136.4 52.632 136.827 51.4907 136.827 50.104C136.827 48.7173 136.4 47.5867 135.547 46.712C134.715 45.816 133.637 45.368 132.315 45.368C131.013 45.368 129.936 45.8053 129.083 46.68C128.229 47.5547 127.803 48.6853 127.803 50.072C127.803 51.4587 128.229 52.6 129.083 53.496C129.936 54.392 131.013 54.84 132.315 54.84ZM148.686 57.4C149.923 58.0827 151.342 58.424 152.942 58.424C154.222 58.424 155.363 58.1893 156.366 57.72C157.39 57.2507 158.243 56.6107 158.926 55.8C159.63 54.968 160.131 54.0507 160.43 53.048H156.27C155.992 53.6453 155.566 54.136 154.99 54.52C154.435 54.8827 153.742 55.064 152.91 55.064C151.8 55.064 150.851 54.712 150.062 54.008C149.294 53.304 148.867 52.3333 148.782 51.096H160.846C160.867 50.8187 160.878 50.552 160.878 50.296C160.899 50.04 160.91 49.7947 160.91 49.56C160.91 48.1093 160.568 46.7973 159.886 45.624C159.224 44.4293 158.296 43.4907 157.102 42.808C155.907 42.1253 154.531 41.784 152.974 41.784C151.31 41.784 149.859 42.1467 148.622 42.872C147.406 43.576 146.446 44.568 145.742 45.848C145.059 47.128 144.718 48.5893 144.718 50.232C144.718 51.8533 145.07 53.2827 145.774 54.52C146.478 55.7573 147.448 56.7173 148.686 57.4ZM150.318 45.976C151.086 45.4 151.971 45.112 152.974 45.112C154.019 45.112 154.894 45.4213 155.598 46.04C156.302 46.6587 156.686 47.4907 156.75 48.536H148.846C149.059 47.384 149.55 46.5307 150.318 45.976ZM172.171 58.424C170.635 58.424 169.248 58.072 168.011 57.368C166.795 56.664 165.824 55.6933 165.099 54.456C164.395 53.1973 164.043 51.7467 164.043 50.104C164.043 48.4613 164.405 47.0213 165.131 45.784C165.856 44.5253 166.827 43.544 168.043 42.84C169.28 42.136 170.667 41.784 172.203 41.784C173.717 41.784 175.083 42.136 176.299 42.84C177.536 43.544 178.507 44.5253 179.211 45.784C179.936 47.0213 180.299 48.4613 180.299 50.104C180.299 51.7467 179.936 53.1973 179.211 54.456C178.507 55.6933 177.536 56.664 176.299 57.368C175.061 58.072 173.685 58.424 172.171 58.424ZM172.171 54.872C173.237 54.872 174.165 54.4773 174.955 53.688C175.744 52.8773 176.139 51.6827 176.139 50.104C176.139 48.5253 175.744 47.3413 174.955 46.552C174.165 45.7413 173.248 45.336 172.203 45.336C171.115 45.336 170.176 45.7413 169.387 46.552C168.619 47.3413 168.235 48.5253 168.235 50.104C168.235 51.6827 168.619 52.8773 169.387 53.688C170.176 54.4773 171.104 54.872 172.171 54.872ZM201.377 50.1069C198.118 52.4506 195.201 55.239 192.713 58.3832C191.868 58.3001 191.108 58.0897 190.433 57.752C189.537 57.304 188.812 56.6747 188.257 55.864L187.809 58.04H184.161V35H188.257V44.44C188.769 43.736 189.441 43.1173 190.273 42.584C191.126 42.0507 192.225 41.784 193.569 41.784C195.062 41.784 196.396 42.1467 197.569 42.872C198.742 43.5973 199.67 44.5893 200.353 45.848C201.032 47.099 201.373 48.5187 201.377 50.1069ZM217.414 42.9923C212.991 43.9389 208.819 45.5659 205.015 47.7584C205.185 47.0821 205.429 46.4453 205.748 45.848C206.452 44.568 207.412 43.576 208.628 42.872C209.865 42.1467 211.316 41.784 212.98 41.784C214.537 41.784 215.913 42.1253 217.108 42.808C217.212 42.8675 217.314 42.9289 217.414 42.9923ZM228.657 42.0953C227.928 42.0586 227.194 42.04 226.456 42.04C225.821 42.04 225.189 42.0537 224.561 42.081V35H228.657V42.0953ZM247.576 47.5752C243.91 45.5042 239.91 43.9557 235.676 43.0308C236.001 42.8252 236.35 42.6443 236.722 42.488C237.789 42.0187 238.984 41.784 240.306 41.784C242.568 41.784 244.349 42.3493 245.65 43.48C246.8 44.4788 247.442 45.8439 247.576 47.5752ZM255.999 53.7954C254.707 52.5732 253.339 51.4303 251.903 50.3744V42.168H255.999V53.7954ZM195.937 53.528C195.084 54.4027 194.006 54.84 192.705 54.84C191.382 54.84 190.294 54.4027 189.441 53.528C188.609 52.632 188.193 51.4907 188.193 50.104C188.193 48.7173 188.609 47.5867 189.441 46.712C190.294 45.816 191.382 45.368 192.705 45.368C194.006 45.368 195.084 45.816 195.937 46.712C196.79 47.608 197.217 48.7493 197.217 50.136C197.217 51.5227 196.79 52.6533 195.937 53.528ZM252.127 39.032C252.618 39.48 253.236 39.704 253.983 39.704C254.73 39.704 255.338 39.48 255.807 39.032C256.298 38.584 256.543 38.0187 256.543 37.336C256.543 36.6533 256.298 36.0987 255.807 35.672C255.338 35.224 254.73 35 253.983 35C253.236 35 252.618 35.224 252.127 35.672C251.658 36.0987 251.423 36.6533 251.423 37.336C251.423 38.0187 251.658 38.584 252.127 39.032ZM265.945 58.424C264.58 58.424 263.46 58.2107 262.585 57.784C261.711 57.336 261.06 56.7493 260.633 56.024C260.207 55.2987 259.993 54.4987 259.993 53.624C259.993 52.152 260.57 50.9573 261.721 50.04C262.873 49.1227 264.602 48.664 266.906 48.664H270.938V48.28C270.938 47.192 270.628 46.392 270.01 45.88C269.391 45.368 268.623 45.112 267.706 45.112C266.874 45.112 266.148 45.3147 265.529 45.72C264.911 46.104 264.527 46.68 264.378 47.448H260.378C260.484 46.296 260.868 45.2933 261.529 44.44C262.212 43.5867 263.087 42.936 264.154 42.488C265.22 42.0187 266.415 41.784 267.738 41.784C269.999 41.784 271.78 42.3493 273.081 43.48C274.383 44.6107 275.034 46.2107 275.034 48.28V58.04H271.546L271.161 55.48C270.692 56.3333 270.031 57.0373 269.178 57.592C268.346 58.1467 267.268 58.424 265.945 58.424ZM266.874 55.224C268.047 55.224 268.954 54.84 269.594 54.072C270.255 53.304 270.671 52.3547 270.842 51.224H267.354C266.266 51.224 265.487 51.4267 265.018 51.832C264.548 52.216 264.314 52.696 264.314 53.272C264.314 53.8907 264.548 54.3707 265.018 54.712C265.487 55.0533 266.105 55.224 266.874 55.224ZM282.79 42.168H279.142V58.04H283.238V50.808C283.238 49.592 283.43 48.6427 283.814 47.96C284.22 47.2773 284.774 46.7973 285.478 46.52C286.182 46.2427 286.982 46.104 287.878 46.104H289.03V41.784C287.686 41.784 286.513 42.0933 285.51 42.712C284.529 43.3093 283.75 44.12 283.174 45.144L282.79 42.168Z" fill="#FFBD3A"/>
</svg>
